<?xml version="1.0" standalone="no"?>
<!DOCTYPE svg PUBLIC "-//W3C//DTD SVG 20010904//EN"
 "http://www.w3.org/TR/2001/REC-SVG-20010904/DTD/svg10.dtd">
<svg version="1.0" xmlns="http://www.w3.org/2000/svg"
 width="1189.000000pt" height="1189.000000pt" viewBox="0 0 1189.000000 1189.000000"
 preserveAspectRatio="xMidYMid meet">
<metadata>
Created by potrace 1.11, written by Peter Selinger 2001-2013
</metadata>
<g transform="translate(0.000000,1189.000000) scale(0.100000,-0.100000)"
fill="#000000" stroke="none">
<path d="M5618 11365 c-2 -1 -48 -6 -103 -9 -107 -8 -159 -13 -300 -31 -57 -8
-190 -27 -210 -31 -11 -2 -69 -13 -130 -25 -91 -17 -396 -89 -443 -105 -8 -2
-10 -9 -5 -18 7 -11 168 -188 224 -245 8 -9 53 -61 99 -116 46 -55 97 -116
114 -135 17 -20 42 -51 56 -69 14 -19 64 -84 111 -145 47 -61 130 -176 184
-256 54 -80 102 -146 107 -148 4 -2 8 -7 8 -11 0 -4 43 -78 95 -164 52 -86
111 -187 132 -224 121 -221 115 -210 242 -476 34 -71 61 -131 61 -133 0 -3 8
-24 19 -47 72 -161 196 -506 251 -697 12 -41 24 -82 27 -90 7 -18 3 -3 52
-195 58 -234 115 -507 136 -655 2 -19 11 -82 19 -140 14 -96 29 -228 42 -370
2 -30 7 -73 9 -95 2 -22 7 -105 11 -185 9 -212 10 -226 18 -238 9 -16 266
-151 426 -225 129 -59 178 -80 323 -136 255 -99 734 -242 895 -267 40 -6 44
-7 177 -34 55 -10 138 -24 185 -30 111 -14 158 -20 198 -26 30 -5 32 -3 33 23
0 15 2 35 4 44 19 97 28 853 12 1069 -15 223 -21 283 -43 455 -21 169 -23 181
-40 268 -9 42 -17 90 -20 105 -35 210 -149 662 -219 867 -98 287 -210 580
-282 735 -22 47 -50 110 -63 140 -41 93 -156 312 -256 486 -31 54 -68 119 -82
144 -52 92 -253 392 -353 526 -87 118 -300 388 -319 404 -3 3 -65 70 -137 150
-72 80 -173 186 -225 237 l-93 91 -90 7 c-49 3 -130 10 -180 14 -83 7 -670 13
-677 6z"/>
<path d="M7750 11044 c0 -4 51 -75 114 -158 98 -130 346 -489 346 -500 0 -2
31 -53 69 -113 150 -239 357 -638 475 -918 38 -88 74 -173 81 -190 48 -109
186 -505 242 -695 81 -277 179 -694 208 -885 3 -22 12 -76 20 -120 8 -44 17
-100 20 -125 3 -25 12 -99 20 -165 18 -151 23 -201 30 -295 3 -41 8 -104 11
-140 13 -155 18 -604 9 -795 -8 -180 -16 -303 -21 -351 l-6 -52 79 3 c43 2
146 6 228 10 83 3 165 7 184 10 19 2 71 7 115 10 252 16 820 118 1065 191 30
9 62 17 70 19 9 2 61 17 116 33 l100 29 0 239 c0 131 -4 280 -8 329 -4 50 -10
117 -13 150 -16 176 -89 588 -131 735 -8 30 -16 62 -18 70 -30 149 -205 643
-297 840 -55 118 -158 324 -186 375 -16 28 -43 76 -61 109 -111 198 -296 464
-484 696 -100 123 -213 246 -367 399 -115 114 -175 168 -370 338 -158 137
-552 405 -815 553 -52 29 -267 136 -330 165 -33 14 -89 40 -125 57 -61 29
-214 90 -271 107 -14 5 -39 16 -57 25 -34 17 -42 19 -42 10z"/>
<path d="M3222 10650 c-109 -62 -422 -265 -468 -304 -11 -8 -62 -48 -115 -88
-95 -72 -133 -103 -293 -243 -119 -103 -357 -344 -470 -475 -140 -163 -134
-156 -208 -255 -37 -49 -72 -95 -77 -102 -67 -78 -324 -491 -416 -668 -32 -60
-68 -128 -80 -150 -20 -37 -96 -199 -143 -305 -87 -197 -200 -534 -257 -765
-48 -198 -99 -454 -110 -555 -4 -36 -9 -73 -10 -82 -12 -64 -32 -321 -35 -458
-5 -243 1 -532 15 -625 6 -39 13 -104 20 -185 4 -36 10 -90 15 -120 14 -83 18
-109 30 -185 6 -38 13 -71 15 -74 3 -2 9 7 14 20 94 245 342 752 487 996 269
451 583 880 908 1238 50 55 96 105 101 111 78 89 374 378 520 508 133 118 152
134 210 181 28 21 52 42 55 45 31 35 394 309 565 426 180 123 385 256 475 307
162 92 357 199 477 259 78 40 143 77 143 81 0 14 -152 265 -250 412 -142 213
-242 344 -427 559 -167 194 -536 566 -562 566 -4 0 -62 -31 -129 -70z"/>
<path d="M4720 8451 c-193 -96 -445 -236 -528 -292 -24 -16 -45 -29 -48 -29
-5 0 -264 -171 -376 -248 -49 -35 -185 -137 -313 -236 -22 -17 -85 -69 -139
-116 -55 -47 -116 -98 -136 -113 -42 -34 -267 -244 -329 -307 -145 -148 -256
-265 -321 -340 -41 -47 -89 -101 -106 -120 -133 -150 -396 -500 -528 -704 -79
-121 -216 -344 -216 -350 0 -2 -17 -33 -38 -67 -55 -91 -197 -377 -280 -565
-132 -298 -251 -637 -337 -961 l-45 -172 83 -168 c129 -261 301 -556 423 -726
27 -38 54 -76 59 -85 67 -107 323 -417 481 -582 157 -163 195 -202 198 -199 2
2 22 65 45 139 40 128 147 435 178 510 8 19 19 44 23 55 4 11 18 42 30 69 12
27 30 71 41 99 36 92 222 472 309 632 46 86 184 315 248 415 95 147 166 255
174 265 8 10 69 93 106 145 9 13 71 92 136 175 306 385 616 711 942 992 12 10
47 41 79 68 57 49 327 263 376 297 13 10 54 40 91 67 38 27 142 98 233 157
l165 109 -5 80 c-2 44 -7 132 -10 196 -3 64 -8 127 -10 140 -2 13 -6 58 -10
99 -11 131 -15 170 -35 295 -5 33 -12 78 -15 100 -37 256 -133 639 -239 955
-50 149 -147 404 -158 415 -2 2 -91 -40 -198 -94z"/>
<path d="M5910 5345 c-19 -12 -89 -58 -155 -101 -196 -127 -567 -404 -635
-474 -8 -8 -73 -68 -145 -132 -228 -204 -469 -463 -674 -726 -40 -51 -71 -97
-69 -102 6 -18 621 -410 643 -410 2 0 59 -30 127 -67 347 -187 879 -408 1258
-523 58 -17 116 -35 130 -40 60 -22 431 -112 595 -144 181 -36 442 -79 545
-91 30 -3 71 -8 90 -10 19 -2 64 -7 100 -10 36 -3 81 -8 100 -10 209 -23 942
-23 1090 0 14 2 52 7 85 10 63 6 120 12 195 21 78 9 413 64 450 74 19 5 50 12
67 15 71 12 177 37 365 87 l197 52 27 44 c15 23 35 52 43 62 111 132 362 571
508 889 86 187 258 655 277 752 2 13 16 64 30 113 15 49 24 91 22 94 -3 2 -54
-8 -114 -22 -60 -14 -124 -28 -143 -31 -19 -3 -47 -10 -64 -15 -16 -5 -46 -11
-65 -14 -19 -3 -96 -16 -170 -30 -74 -13 -157 -27 -185 -30 -27 -3 -61 -8 -75
-10 -71 -13 -233 -33 -320 -40 -64 -6 -135 -13 -215 -21 -76 -8 -340 -19 -440
-18 -120 0 -426 13 -434 17 -3 2 -49 7 -101 10 -118 8 -162 13 -282 31 -18 2
-71 9 -118 15 -373 48 -924 180 -1330 318 -167 57 -469 172 -550 209 -30 14
-91 41 -135 60 -44 20 -167 78 -274 129 -106 52 -199 94 -205 93 -6 0 -27 -11
-46 -24z"/>
<path d="M3733 3048 c-51 -95 -107 -207 -126 -248 -19 -41 -46 -100 -60 -130
-75 -163 -209 -525 -263 -710 -13 -47 -33 -114 -44 -150 -11 -36 -38 -144 -60
-240 -23 -96 -43 -180 -45 -186 -2 -6 13 -20 33 -31 21 -11 87 -49 147 -84
160 -94 506 -259 660 -317 231 -85 405 -142 565 -183 114 -29 282 -68 325 -75
41 -6 56 -9 130 -24 62 -12 319 -47 400 -54 183 -16 287 -20 545 -21 379 0
522 11 925 70 87 12 359 72 490 107 269 71 624 200 820 296 44 21 98 47 120
57 86 39 357 193 490 278 178 113 501 349 545 398 3 3 22 18 43 33 20 16 37
31 37 35 0 4 -46 1 -102 -6 -57 -6 -128 -15 -158 -18 -30 -4 -62 -8 -70 -10
-8 -2 -58 -7 -110 -11 -52 -3 -111 -8 -130 -10 -185 -17 -774 -24 -995 -10
-139 8 -239 16 -290 21 -22 3 -83 9 -135 15 -179 19 -195 21 -310 40 -63 10
-135 22 -160 25 -62 9 -119 20 -225 44 -49 11 -103 22 -120 25 -94 18 -433
112 -619 172 -537 174 -1113 435 -1608 729 -9 5 -45 27 -78 48 -34 20 -66 37
-71 37 -5 0 -9 4 -9 8 0 5 -11 14 -24 20 -13 6 -99 60 -190 121 -92 61 -170
111 -174 111 -4 0 -49 -78 -99 -172z"/>
</g>
</svg>
